<svg width="90" height="153" viewBox="0 0 90 153" fill="none" xmlns="http://www.w3.org/2000/svg">
<circle cx="32" cy="19" r="14" fill="#cdcfdb"/>
<path d="M48 32L27.5001 36C22.5001 56 12.2001 96.9 11.0001 100.5C9.80006 104.1 16.8334 104.667 20.5001 104.5H55.0001C61.8001 104.5 63.5001 101.833 63.5001 100.5L48 32Z" fill="#cdcfdb"/>
<path d="M21.5 149.5V101.5H34.5V149.5C29.7 154.3 23.8333 151.5 21.5 149.5Z" fill="#cdcfdb"/>
<path d="M40 149V101H53V149C48.2 153.8 42.3333 151 40 149Z" fill="#cdcfdb"/>
<path d="M10.5 39.5C16.1 31.9 19.5 37.3334 20.5 41L9 83C2.2 89.4 0.166667 83.3333 0 79.5L10.5 39.5Z" fill="#cdcfdb"/>
<path d="M81.5 1.50005L71.5 18.5L52.5 33.5C51.3 38.7 56.6667 40.3333 59.5 40.5L74.5 29C76.9 27.8 80.1667 24.1667 81.5 22.5L90 5.00005C89.6 -0.199951 84.1667 0.500049 81.5 1.50005Z" fill="#cdcfdb"/>
</svg>
