<svg width="auto" height="50" viewBox="0 0 74 152" fill="none" xmlns="http://www.w3.org/2000/svg">
<circle cx="38" cy="14" r="14" fill="#cdcfdb"/>
<path d="M46.5 35H27.5C22.5 55 12.2 95.9 11 99.5C9.8 103.1 16.8333 103.667 20.5 103.5H55C61.8 103.5 63.5 100.833 63.5 99.5L46.5 35Z" fill="#cdcfdb"/>
<path d="M21.5 148.5V100.5H34.5V148.5C29.7 153.3 23.8333 150.5 21.5 148.5Z" fill="#cdcfdb"/>
<path d="M40 148V100H53V148C48.2 152.8 42.3333 150 40 148Z" fill="#cdcfdb"/>
<path d="M10.5 38.5C16.1 30.9 19.5 36.3334 20.5 40L9 82C2.2 88.4 0.166667 82.3333 0 78.5L10.5 38.5Z" fill="#cdcfdb"/>
<path d="M63 38.8329C57.4 31.2329 54 36.6662 53 40.3329L64.5 82.3329C71.3 88.7329 73.3333 82.6662 73.5 78.8329L63 38.8329Z" fill="#cdcfdb"/>
</svg>
