<svg width="99" height="152" viewBox="0 0 99 152" fill="none" xmlns="http://www.w3.org/2000/svg">
<circle cx="41" cy="19" r="14" fill="#D9D9D9"/>
<path d="M31 148.965V94H45V148.965C39.8308 154.462 33.5128 151.255 31 148.965Z" fill="#D9D9D9"/>
<path d="M51 148.965V94H66V148.965C60.4615 154.462 53.6923 151.255 51 148.965Z" fill="#D9D9D9"/>
<path d="M11.1307 46.2597C14.604 37.4816 19.2789 41.8664 21.1822 45.1561L20.7898 88.7003C15.8497 96.6247 12.3345 91.2785 11.1944 87.6148L11.1307 46.2597Z" fill="#D9D9D9"/>
<path d="M90.5 1.50005L80.5 18.5L61.5 33.5C60.3 38.7 65.6667 40.3333 68.5 40.5L83.5 29C85.9 27.8 89.1667 24.1667 90.5 22.5L99 5.00005C98.6 -0.199951 93.1667 0.500049 90.5 1.50005Z" fill="#D9D9D9"/>
<path d="M55.1167 33L26 37.1092C28.2911 47.3823 30.1368 80.0848 30.7732 95.152C63.2311 97.6175 67.527 94.1247 65.6178 92.0701C60.6536 56.7308 56.5486 37.9653 55.1167 33Z" fill="#D9D9D9"/>
</svg>
