<svg width="84" height="146" viewBox="0 0 84 146" fill="none" xmlns="http://www.w3.org/2000/svg">
<circle cx="43" cy="14" r="14" fill="#D9D9D9"/>
<path d="M27.6098 31H57.5628L61 96.8488C48.2332 97.1891 25.1546 96.8488 25.1546 96.8488C24.369 96.8488 26.7914 52.6093 27.6098 31Z" fill="#D9D9D9"/>
<path d="M25 143.331V95H40V143.331C34.4615 148.165 27.6923 145.345 25 143.331Z" fill="#D9D9D9"/>
<path d="M46 143.331V95H61V143.331C55.4615 148.165 48.6923 145.345 46 143.331Z" fill="#D9D9D9"/>
<path d="M12.4672 34.2045C17.5264 25.0306 22.1049 30.4671 23.7618 34.3321L17.3305 82.0827C10.763 90.1239 7.60231 83.7865 6.84292 79.6127L12.4672 34.2045Z" fill="#D9D9D9"/>
<path d="M71.0128 33.7142C65.9536 24.5403 61.3751 29.9768 59.7182 33.8418L66.1495 81.5923C72.717 89.6335 75.8777 83.2962 76.6371 79.1223L71.0128 33.7142Z" fill="#D9D9D9"/>
</svg>
